<?xml version="1.0" standalone="no"?>
<!DOCTYPE svg PUBLIC "-//W3C//DTD SVG 20010904//EN"
 "http://www.w3.org/TR/2001/REC-SVG-20010904/DTD/svg10.dtd">
<svg version="1.0" xmlns="http://www.w3.org/2000/svg"
 width="1080.000000pt" height="750.000000pt" viewBox="0 0 1080.000000 750.000000"
 preserveAspectRatio="xMidYMid meet">
<metadata>
Created by potrace 1.16, written by Peter Selinger 2001-2019
</metadata>
<g transform="translate(0.000000,750.000000) scale(0.100000,-0.100000)"
fill="#000000" stroke="none">
<path d="M2380 5765 l0 -95 -90 0 -90 0 0 -90 0 -90 -95 0 -95 0 0 -90 0 -90
-90 0 -90 0 0 -90 0 -90 -90 0 -90 0 0 -95 0 -95 -95 0 -95 0 0 -180 0 -180
185 0 185 0 0 -95 0 -95 -185 0 -185 0 0 -180 0 -180 185 0 185 0 0 -365 0
-365 -90 0 -90 0 0 -550 0 -550 90 0 90 0 0 -90 0 -90 90 0 90 0 0 -90 0 -90
95 0 95 0 0 -95 0 -95 180 0 180 0 0 -90 0 -90 185 0 185 0 0 -90 0 -90 180 0
180 0 0 180 0 180 -180 0 -180 0 0 95 0 95 180 0 180 0 0 1915 0 1915 -270 0
-270 0 0 95 0 95 -185 0 -185 0 0 -95z m0 -3655 l0 -90 -90 0 -90 0 0 90 0 90
90 0 90 0 0 -90z m550 -180 l0 -90 -185 0 -185 0 0 90 0 90 185 0 185 0 0 -90z"/>
<path d="M4390 4120 l0 -90 -90 0 -90 0 0 -365 0 -365 -90 0 -90 0 0 90 0 90
-275 0 -275 0 0 -365 0 -365 90 0 90 0 0 -90 0 -90 90 0 90 0 0 -95 0 -95 -90
0 -90 0 0 -90 0 -90 365 0 365 0 0 -180 0 -180 95 0 95 0 0 180 0 180 365 0
365 0 0 90 0 90 -95 0 -95 0 0 95 0 95 95 0 95 0 0 90 0 90 90 0 90 0 0 365 0
365 -275 0 -275 0 0 -90 0 -90 -90 0 -90 0 0 365 0 365 -90 0 -90 0 0 90 0 90
-95 0 -95 0 0 -90z"/>
<path d="M7870 4030 l0 -180 -185 0 -185 0 0 -1465 0 -1465 95 0 95 0 0 -90 0
-90 -95 0 -95 0 0 -180 0 -180 95 0 95 0 0 180 0 180 180 0 180 0 0 90 0 90
95 0 95 0 0 95 0 95 90 0 90 0 0 180 0 180 -90 0 -90 0 0 90 0 90 455 0 455 0
0 95 0 95 -275 0 -275 0 0 90 0 90 275 0 275 0 0 180 0 180 -90 0 -90 0 0 95
0 95 90 0 90 0 0 90 0 90 90 0 90 0 0 -185 0 -185 275 0 275 0 0 95 0 95 90 0
90 0 0 90 0 90 -90 0 -90 0 0 90 0 90 90 0 90 0 0 95 0 95 -365 0 -365 0 0
180 0 180 -90 0 -90 0 0 90 0 90 -365 0 -365 0 0 95 0 95 -90 0 -90 0 0 90 0
90 -95 0 -95 0 0 90 0 90 -90 0 -90 0 0 -180z m2010 -1370 l0 -90 -180 0 -180
0 0 90 0 90 180 0 180 0 0 -90z m-1640 -1280 l0 -90 -95 0 -95 0 0 -90 0 -90
-180 0 -180 0 0 90 0 90 180 0 180 0 0 90 0 90 95 0 95 0 0 -90z"/>
<path d="M9330 2020 l0 -180 185 0 185 0 0 180 0 180 -185 0 -185 0 0 -180z"/>
<path d="M9330 1560 l0 -90 185 0 185 0 0 90 0 90 -185 0 -185 0 0 -90z"/>
</g>
</svg>
